<!--?xml version="1.0" standalone="no"?-->
              <svg id="sw-js-blob-svg" viewBox="0 0 100 100" xmlns="http://www.w3.org/2000/svg" version="1.1">
                    <defs> 
                        <linearGradient id="sw-gradient" x1="0" x2="1" y1="1" y2="0">
                            <stop id="stop1" stop-color="rgba(7.627, 7.507, 7.45, 1)" offset="0%"></stop>
                            <stop id="stop2" stop-color="rgba(0, 0, 0, 1)" offset="100%"></stop>
                        </linearGradient>
                    </defs>
                <path fill="url(#sw-gradient)" d="M22.3,-37.5C29.5,-34.4,36.3,-29.7,40.6,-23.1C44.8,-16.6,46.4,-8.3,46.2,-0.1C46,8.1,44,16.2,39.8,22.8C35.7,29.4,29.3,34.7,22.3,37.7C15.3,40.7,7.7,41.6,0.3,41.1C-7.1,40.6,-14.1,38.6,-20.1,35C-26,31.3,-30.9,26,-35.3,19.9C-39.7,13.8,-43.7,6.9,-43.6,0.1C-43.4,-6.7,-39.2,-13.5,-35.4,-20.5C-31.5,-27.5,-27.9,-34.8,-22,-38.7C-16.2,-42.6,-8.1,-43.1,-0.3,-42.6C7.5,-42.1,15.1,-40.6,22.3,-37.5Z" width="100%" height="100%" transform="translate(50 50)" stroke-width="0" style="transition: 0.3s;" stroke="url(#sw-gradient)"></path>
              </svg>